<svg xmlns="http://www.w3.org/2000/svg" enable-background="new 0 0 64 64" viewBox="0 0 64 64"><path d="M38.56,52.01H25.44c-1.64,0-2.97-1.44-2.97-3.21v-1.43c0-0.54,0.43-0.97,0.97-0.97c0.54,0,0.97,0.43,0.97,0.97v1.43
									c0,0.7,0.46,1.27,1.03,1.27h13.13c0.57,0,1.03-0.57,1.03-1.27v-1.43c0-0.54,0.43-0.97,0.97-0.97c0.54,0,0.97,0.43,0.97,0.97
									v1.43C41.53,50.57,40.2,52.01,38.56,52.01z"/><path d="M59.05,48.34c-0.54,0-0.97-0.43-0.97-0.97V12.53c0-1.09-0.84-1.97-1.86-1.97H7.78c-1.02,0-1.85,0.88-1.85,1.97
									v34.84c0,0.54-0.43,0.97-0.97,0.97s-0.97-0.43-0.97-0.97V12.53c0-2.16,1.7-3.91,3.79-3.91h48.43c2.1,0,3.8,1.75,3.8,3.91
									v34.84C60.02,47.91,59.58,48.34,59.05,48.34z"/><path d="M57.77 55.38H6.23c-1.78 0-3.43-.96-4.31-2.5l-1.59-2.77c-.44-.77-.44-1.69.01-2.47.45-.77 1.25-1.23 2.14-1.23h59.05c.89 0 1.69.46 2.14 1.23.45.77.45 1.69.01 2.47l-1.59 2.77C61.2 54.42 59.54 55.38 57.77 55.38zM2.47 48.35c-.28 0-.41.18-.46.26-.05.08-.14.29 0 .53l1.59 2.77c.54.94 1.55 1.52 2.63 1.52h51.54c1.08 0 2.09-.58 2.63-1.52l1.59-2.77c.14-.24.05-.45 0-.53-.05-.08-.18-.26-.46-.26H2.47zM54.55 43.94H9.45c-.54 0-.97-.43-.97-.97V15.72c0-.54.43-.97.97-.97h45.1c.54 0 .97.43.97.97v27.25C55.52 43.5 55.08 43.94 54.55 43.94zM10.42 42h43.16V16.68H10.42V42zM35.2 13.62h-6.4c-.54 0-.97-.43-.97-.97 0-.54.43-.97.97-.97h6.4c.54 0 .97.43.97.97C36.17 13.19 35.74 13.62 35.2 13.62z"/><path d="M34.91 29.32c-.15 0-.29-.03-.43-.1-.33-.16-.54-.5-.54-.87v-1.27H23.79c-.54 0-.97-.43-.97-.97v-3.73c0-.54.43-.97.97-.97h10.15v-1.26c0-.37.21-.71.54-.87.33-.16.73-.12 1.02.1l5.29 4.1c.24.18.38.47.38.77 0 .3-.14.58-.38.77l-5.29 4.1C35.33 29.25 35.12 29.32 34.91 29.32zM24.76 25.14h10.15c.54 0 .97.43.97.97v.26l2.74-2.12-2.74-2.12v.26c0 .54-.43.97-.97.97H24.76V25.14zM29.08 39.5c-.21 0-.42-.07-.59-.2l-5.29-4.1c-.24-.18-.38-.47-.38-.77 0-.3.14-.58.38-.77l5.29-4.1c.29-.23.69-.27 1.02-.1.33.16.54.5.54.87v1.26H40.2c.54 0 .97.43.97.97v3.73c0 .54-.43.97-.97.97H30.05v1.26c0 .37-.21.71-.54.87C29.37 39.47 29.23 39.5 29.08 39.5zM25.37 34.43l2.74 2.12V36.3c0-.54.43-.97.97-.97h10.15v-1.79H29.08c-.54 0-.97-.43-.97-.97v-.26L25.37 34.43z"/></svg>